<mxfile host="app.diagrams.net" modified="2024-06-16T20:58:17.893Z" agent="Mozilla/5.0 (X11; Linux x86_64; rv:126.0) Gecko/20100101 Firefox/126.0" etag="rivgotpDYQ5prMpntFsy" version="24.5.4" type="device">
  <diagram name="Page-1" id="XodCYSSBuivg2by0QUlZ">
    <mxGraphModel dx="1414" dy="705" grid="1" gridSize="10" guides="1" tooltips="1" connect="1" arrows="1" fold="1" page="1" pageScale="1" pageWidth="850" pageHeight="1100" math="0" shadow="0">
      <root>
        <mxCell id="0" />
        <mxCell id="1" parent="0" />
        <mxCell id="Q6osRZO1qgRselK7mQF7-31" value="" style="group;fontFamily=Times New Roman;" vertex="1" connectable="0" parent="1">
          <mxGeometry x="150" y="330" width="550" height="40" as="geometry" />
        </mxCell>
        <mxCell id="Q6osRZO1qgRselK7mQF7-1" value="SOF" style="rounded=0;whiteSpace=wrap;html=1;fontFamily=Times New Roman;" vertex="1" parent="Q6osRZO1qgRselK7mQF7-31">
          <mxGeometry width="30" height="40" as="geometry" />
        </mxCell>
        <mxCell id="Q6osRZO1qgRselK7mQF7-2" value="&lt;div&gt;ID&lt;/div&gt;&lt;div&gt;(11b)&lt;/div&gt;" style="rounded=0;whiteSpace=wrap;html=1;fillStyle=dots;fillColor=#F2F2F2;fontFamily=Times New Roman;" vertex="1" parent="Q6osRZO1qgRselK7mQF7-31">
          <mxGeometry x="30" width="90" height="40" as="geometry" />
        </mxCell>
        <mxCell id="Q6osRZO1qgRselK7mQF7-3" value="RTR" style="rounded=0;whiteSpace=wrap;html=1;fillStyle=hatch;fillColor=#BDBDBD;fontFamily=Times New Roman;" vertex="1" parent="Q6osRZO1qgRselK7mQF7-31">
          <mxGeometry x="120" width="30" height="40" as="geometry" />
        </mxCell>
        <mxCell id="Q6osRZO1qgRselK7mQF7-4" value="IDE" style="rounded=0;whiteSpace=wrap;html=1;fontFamily=Times New Roman;" vertex="1" parent="Q6osRZO1qgRselK7mQF7-31">
          <mxGeometry x="150" width="30" height="40" as="geometry" />
        </mxCell>
        <mxCell id="Q6osRZO1qgRselK7mQF7-5" value="r0" style="rounded=0;whiteSpace=wrap;html=1;fontFamily=Times New Roman;" vertex="1" parent="Q6osRZO1qgRselK7mQF7-31">
          <mxGeometry x="180" width="30" height="40" as="geometry" />
        </mxCell>
        <mxCell id="Q6osRZO1qgRselK7mQF7-6" value="&lt;div&gt;DLC&lt;/div&gt;(4b)" style="rounded=0;whiteSpace=wrap;html=1;fillStyle=solid;fillColor=#BDBDBD;fontFamily=Times New Roman;" vertex="1" parent="Q6osRZO1qgRselK7mQF7-31">
          <mxGeometry x="210" width="60" height="40" as="geometry" />
        </mxCell>
        <mxCell id="Q6osRZO1qgRselK7mQF7-7" value="&lt;div&gt;podatci&lt;/div&gt;(0-8B)" style="rounded=0;whiteSpace=wrap;html=1;fillStyle=solid;fillColor=#BDBDBD;fontFamily=Times New Roman;" vertex="1" parent="Q6osRZO1qgRselK7mQF7-31">
          <mxGeometry x="270" width="140" height="40" as="geometry" />
        </mxCell>
        <mxCell id="Q6osRZO1qgRselK7mQF7-9" value="&lt;div&gt;CRC&lt;/div&gt;&lt;div&gt;(15b)&lt;/div&gt;" style="rounded=0;whiteSpace=wrap;html=1;fontFamily=Times New Roman;" vertex="1" parent="Q6osRZO1qgRselK7mQF7-31">
          <mxGeometry x="400" width="80" height="40" as="geometry" />
        </mxCell>
        <mxCell id="Q6osRZO1qgRselK7mQF7-10" value="ACK" style="rounded=0;whiteSpace=wrap;html=1;fontFamily=Times New Roman;" vertex="1" parent="Q6osRZO1qgRselK7mQF7-31">
          <mxGeometry x="480" width="30" height="40" as="geometry" />
        </mxCell>
        <mxCell id="Q6osRZO1qgRselK7mQF7-11" value="&lt;div&gt;EOF&lt;/div&gt;&lt;div&gt;(7b)&lt;/div&gt;" style="rounded=0;whiteSpace=wrap;html=1;fontFamily=Times New Roman;" vertex="1" parent="Q6osRZO1qgRselK7mQF7-31">
          <mxGeometry x="510" width="40" height="40" as="geometry" />
        </mxCell>
        <mxCell id="Q6osRZO1qgRselK7mQF7-32" value="" style="group;fontFamily=Times New Roman;" vertex="1" connectable="0" parent="1">
          <mxGeometry x="80" y="400" width="690" height="40" as="geometry" />
        </mxCell>
        <mxCell id="Q6osRZO1qgRselK7mQF7-12" value="SOF" style="rounded=0;whiteSpace=wrap;html=1;fontFamily=Times New Roman;" vertex="1" parent="Q6osRZO1qgRselK7mQF7-32">
          <mxGeometry width="30" height="40" as="geometry" />
        </mxCell>
        <mxCell id="Q6osRZO1qgRselK7mQF7-13" value="&lt;div&gt;ID 1.dio&lt;br&gt;&lt;/div&gt;&lt;div&gt;(11b)&lt;/div&gt;" style="rounded=0;whiteSpace=wrap;html=1;fillStyle=dots;fillColor=#F2F2F2;fontFamily=Times New Roman;" vertex="1" parent="Q6osRZO1qgRselK7mQF7-32">
          <mxGeometry x="30" width="90" height="40" as="geometry" />
        </mxCell>
        <mxCell id="Q6osRZO1qgRselK7mQF7-14" value="SRR" style="rounded=0;whiteSpace=wrap;html=1;fillStyle=hatch;fillColor=#BDBDBD;fontFamily=Times New Roman;" vertex="1" parent="Q6osRZO1qgRselK7mQF7-32">
          <mxGeometry x="120" width="30" height="40" as="geometry" />
        </mxCell>
        <mxCell id="Q6osRZO1qgRselK7mQF7-15" value="IDE" style="rounded=0;whiteSpace=wrap;html=1;fontFamily=Times New Roman;" vertex="1" parent="Q6osRZO1qgRselK7mQF7-32">
          <mxGeometry x="150" width="30" height="40" as="geometry" />
        </mxCell>
        <mxCell id="Q6osRZO1qgRselK7mQF7-16" value="&lt;div&gt;ID 2.dio&lt;/div&gt;&lt;div&gt;(18b)&lt;br&gt;&lt;/div&gt;" style="rounded=0;whiteSpace=wrap;html=1;fillStyle=dots;fillColor=#F2F2F2;fontFamily=Times New Roman;" vertex="1" parent="Q6osRZO1qgRselK7mQF7-32">
          <mxGeometry x="180" width="90" height="40" as="geometry" />
        </mxCell>
        <mxCell id="Q6osRZO1qgRselK7mQF7-22" value="RTR" style="rounded=0;whiteSpace=wrap;html=1;fillStyle=hatch;fillColor=#BDBDBD;fontFamily=Times New Roman;" vertex="1" parent="Q6osRZO1qgRselK7mQF7-32">
          <mxGeometry x="270" width="30" height="40" as="geometry" />
        </mxCell>
        <mxCell id="Q6osRZO1qgRselK7mQF7-24" value="r1" style="rounded=0;whiteSpace=wrap;html=1;fontFamily=Times New Roman;" vertex="1" parent="Q6osRZO1qgRselK7mQF7-32">
          <mxGeometry x="300" width="30" height="40" as="geometry" />
        </mxCell>
        <mxCell id="Q6osRZO1qgRselK7mQF7-25" value="r0" style="rounded=0;whiteSpace=wrap;html=1;fontFamily=Times New Roman;" vertex="1" parent="Q6osRZO1qgRselK7mQF7-32">
          <mxGeometry x="330" width="30" height="40" as="geometry" />
        </mxCell>
        <mxCell id="Q6osRZO1qgRselK7mQF7-26" value="&lt;div&gt;DLC&lt;/div&gt;(4b)" style="rounded=0;whiteSpace=wrap;html=1;fillStyle=solid;fillColor=#BDBDBD;fontFamily=Times New Roman;" vertex="1" parent="Q6osRZO1qgRselK7mQF7-32">
          <mxGeometry x="360" width="60" height="40" as="geometry" />
        </mxCell>
        <mxCell id="Q6osRZO1qgRselK7mQF7-27" value="&lt;div&gt;podatci&lt;/div&gt;(0-8B)" style="rounded=0;whiteSpace=wrap;html=1;fillStyle=solid;fillColor=#BDBDBD;fontFamily=Times New Roman;" vertex="1" parent="Q6osRZO1qgRselK7mQF7-32">
          <mxGeometry x="420" width="130" height="40" as="geometry" />
        </mxCell>
        <mxCell id="Q6osRZO1qgRselK7mQF7-28" value="&lt;div&gt;CRC&lt;/div&gt;&lt;div&gt;(15b)&lt;/div&gt;" style="rounded=0;whiteSpace=wrap;html=1;fontFamily=Times New Roman;" vertex="1" parent="Q6osRZO1qgRselK7mQF7-32">
          <mxGeometry x="550" width="80" height="40" as="geometry" />
        </mxCell>
        <mxCell id="Q6osRZO1qgRselK7mQF7-29" value="ACK" style="rounded=0;whiteSpace=wrap;html=1;fontFamily=Times New Roman;" vertex="1" parent="Q6osRZO1qgRselK7mQF7-32">
          <mxGeometry x="620" width="30" height="40" as="geometry" />
        </mxCell>
        <mxCell id="Q6osRZO1qgRselK7mQF7-30" value="&lt;div&gt;EOF&lt;/div&gt;&lt;div&gt;(7b)&lt;br&gt;&lt;/div&gt;" style="rounded=0;whiteSpace=wrap;html=1;fontFamily=Times New Roman;" vertex="1" parent="Q6osRZO1qgRselK7mQF7-32">
          <mxGeometry x="650" width="40" height="40" as="geometry" />
        </mxCell>
        <mxCell id="Q6osRZO1qgRselK7mQF7-34" value="" style="swimlane;startSize=0;fontFamily=Times New Roman;" vertex="1" parent="1">
          <mxGeometry x="70" y="300" width="710" height="170" as="geometry" />
        </mxCell>
      </root>
    </mxGraphModel>
  </diagram>
</mxfile>
